<svg width="51" height="51" viewBox="0 0 51 51" fill="none" xmlns="http://www.w3.org/2000/svg">
<path d="M46.2031 25.2031C46.2031 13.6048 36.8014 4.20312 25.2031 4.20312C13.6048 4.20312 4.20312 13.6048 4.20312 25.2031C4.20312 36.8014 13.6048 46.2031 25.2031 46.2031C36.8014 46.2031 46.2031 36.8014 46.2031 25.2031Z" stroke="#5DA05D" stroke-width="3"/>
<path d="M42.0031 11.971C40.0396 12.1117 37.5259 12.874 35.7829 15.1294C32.6329 19.2034 29.485 19.5457 27.385 18.187C24.235 16.15 26.8831 12.8467 23.1871 11.0533C20.7784 9.88362 20.4424 6.70213 21.7843 4.20312M4.20312 23.1031C5.80542 24.4933 8.04613 25.7659 10.69 25.7659C16.15 25.7659 17.242 26.8096 17.242 30.9823C17.242 35.155 17.242 35.155 18.334 38.284C19.0438 40.321 19.2916 42.3538 17.8762 44.1031M46.2031 28.2523C44.3404 27.1813 42.0031 26.7382 39.6364 28.4371C35.1109 31.6921 31.9882 28.9957 30.5833 31.69C28.5148 35.6548 35.9047 36.9001 29.4031 46.2031" stroke="#5DA05D" stroke-width="3" stroke-linejoin="round"/>
</svg>
