<svg width="25" height="24" viewBox="0 0 25 24" fill="none" xmlns="http://www.w3.org/2000/svg">
<g clip-path="url(#clip0_3575_29986)">
<path d="M20.3295 6.61195L14.8095 1.07695C14.5173 0.775753 14.1676 0.536299 13.7811 0.372778C13.3946 0.209258 12.9792 0.125 12.5595 0.125C12.1399 0.125 11.7245 0.209258 11.338 0.372778C10.9515 0.536299 10.6018 0.775753 10.3095 1.07695L4.77254 6.61195L12.5275 10.4819L20.3295 6.61195ZM22.4465 8.84695L23.5415 9.94195C23.8446 10.2331 24.0857 10.5825 24.2505 10.9691C24.4152 11.3558 24.5001 11.7717 24.5001 12.1919C24.5001 12.6122 24.4152 13.0281 24.2505 13.4148C24.0857 13.8014 23.8446 14.1508 23.5415 14.4419L14.7205 23.3499C14.5113 23.5636 14.268 23.741 14.0005 23.8749V13.0769L22.4465 8.84695ZM2.55354 8.84695L1.45854 9.94195C1.15547 10.2331 0.914337 10.5825 0.749621 10.9691C0.584906 11.3558 0.5 11.7717 0.5 12.1919C0.5 12.6122 0.584906 13.0281 0.749621 13.4148C0.914337 13.8014 1.15547 14.1508 1.45854 14.4419L10.2805 23.3499C10.4905 23.5639 10.7335 23.7419 11.0005 23.8749V13.0769L2.55354 8.84695Z" fill="#5DA05D"/>
</g>
<defs>
<clipPath id="clip0_3575_29986">
<rect width="24" height="24" fill="white" transform="translate(0.5)"/>
</clipPath>
</defs>
</svg>
