<svg width="25" height="24" viewBox="0 0 25 24" fill="none" xmlns="http://www.w3.org/2000/svg">
<path d="M3.5 21.9981C4.6 21.9981 5.5 21.0981 5.5 19.9981V12.9981C5.5 11.8981 4.6 10.9981 3.5 10.9981C2.4 10.9981 1.5 11.8981 1.5 12.9981V19.9981C1.5 21.0981 2.4 21.9981 3.5 21.9981ZM11.87 16.4281L13.34 16.9381C13.45 16.9781 13.56 16.9981 13.67 16.9981H20.5C21.61 16.9981 22.5 17.8881 22.51 18.9981L15.12 21.7681C14.72 21.9181 14.28 21.9381 13.87 21.8181L7.5 20.0181V10.9981H9.1C9.34 10.9981 9.58 11.0381 9.8 11.1281L16.73 13.7181C16.9897 13.8146 17.2073 13.9993 17.3447 14.2399C17.4821 14.4805 17.5307 14.7617 17.4818 15.0344C17.433 15.3072 17.2899 15.5541 17.0776 15.7321C16.8652 15.91 16.5971 16.0077 16.32 16.0081H13.69C13.57 16.0081 13.45 15.9881 13.33 15.9381L12.21 15.5081C11.95 15.4081 11.66 15.5481 11.57 15.8081C11.48 16.0581 11.61 16.3381 11.87 16.4281ZM20.66 5.89813L15.66 2.32812C14.96 1.82812 14.03 1.82812 13.34 2.32812L8.34 5.89813C7.81 6.27813 7.5 6.87813 7.5 7.52813V8.99813H9.11C9.36 8.99813 9.62 9.04813 9.85 9.13813L17.64 12.2481C18.76 12.7081 19.5 13.7881 19.5 14.9981H21.5V7.52813C21.5 6.87813 21.19 6.27813 20.66 5.89813ZM13.5 9.99813C13.22 9.99813 13 9.77813 13 9.49813C13 9.21812 13.22 8.99813 13.5 8.99813C13.78 8.99813 14 9.21812 14 9.49813C14 9.77813 13.78 9.99813 13.5 9.99813ZM13.5 7.99813C13.22 7.99813 13 7.77813 13 7.49813C13 7.21812 13.22 6.99813 13.5 6.99813C13.78 6.99813 14 7.21812 14 7.49813C14 7.77813 13.78 7.99813 13.5 7.99813ZM15.5 9.99813C15.22 9.99813 15 9.77813 15 9.49813C15 9.21812 15.22 8.99813 15.5 8.99813C15.78 8.99813 16 9.21812 16 9.49813C16 9.77813 15.78 9.99813 15.5 9.99813ZM15.5 7.99813C15.22 7.99813 15 7.77813 15 7.49813C15 7.21812 15.22 6.99813 15.5 6.99813C15.78 6.99813 16 7.21812 16 7.49813C16 7.77813 15.78 7.99813 15.5 7.99813Z" fill="#5DA05D"/>
</svg>
