<svg width="25" height="24" viewBox="0 0 25 24" fill="none" xmlns="http://www.w3.org/2000/svg">
<path d="M2.54787 12.9982H8.02487C8.19599 16.165 9.20542 19.2296 10.9499 21.8782C8.76463 21.5352 6.75466 20.4776 5.23428 18.8709C3.71391 17.2643 2.76984 15.199 2.54787 12.9982ZM2.54688 10.9982C2.76858 8.79731 3.71341 6.73196 5.23361 5.12509C6.7538 3.51823 8.76366 2.46046 10.9489 2.11719C9.20442 4.7658 8.19499 7.83033 8.02388 10.9972L2.54688 10.9982ZM22.4469 10.9982H16.9699C16.7989 7.83099 15.7895 4.76609 14.0449 2.11719C16.2301 2.46021 18.2401 3.51775 19.7605 5.12443C21.2808 6.73111 22.2259 8.79634 22.4479 10.9972M22.4479 12.9972C22.226 15.1979 21.281 17.263 19.7609 18.8697C18.2407 20.4763 16.2309 21.534 14.0459 21.8772C15.7902 19.2289 16.7996 16.1647 16.9709 12.9982L22.4479 12.9972ZM10.0279 12.9982H14.9679C14.8036 15.6977 13.9535 18.3108 12.4979 20.5902C11.0423 18.3108 10.1921 15.6977 10.0279 12.9982ZM10.0279 10.9982C10.1921 8.29864 11.0423 5.6856 12.4979 3.40619C13.9535 5.6856 14.8036 8.29864 14.9679 10.9982H10.0279Z" fill="#5DA05D"/>
</svg>
