<svg width="51" height="51" viewBox="0 0 51 51" fill="none" xmlns="http://www.w3.org/2000/svg">
<path d="M25.2031 46.2016L21.0031 33.6016H4.20312L8.40313 46.2016H25.2031ZM25.2031 46.2016H33.6031M25.2031 27.3016V26.2516C25.2031 22.291 25.2031 20.3128 23.9725 19.0822C22.7419 17.8516 20.7637 17.8516 16.8031 17.8516C12.8425 17.8516 10.8643 17.8516 9.63373 19.0822C8.40313 20.3128 8.40313 22.291 8.40313 26.2516V27.3016" stroke="#5DA05D" stroke-width="3" stroke-linecap="round" stroke-linejoin="round"/>
<path d="M39.9016 27.3031C39.9016 28.417 39.4591 29.4853 38.6714 30.273C37.8838 31.0606 36.8155 31.5031 35.7016 31.5031C34.5877 31.5031 33.5194 31.0606 32.7317 30.273C31.9441 29.4853 31.5016 28.417 31.5016 27.3031C31.5016 26.1892 31.9441 25.1209 32.7317 24.3333C33.5194 23.5456 34.5877 23.1031 35.7016 23.1031C36.8155 23.1031 37.8838 23.5456 38.6714 24.3333C39.4591 25.1209 39.9016 26.1892 39.9016 27.3031ZM21.0016 8.40313C21.0016 9.51703 20.5591 10.5853 19.7714 11.373C18.9838 12.1606 17.9155 12.6031 16.8016 12.6031C15.6877 12.6031 14.6194 12.1606 13.8317 11.373C13.0441 10.5853 12.6016 9.51703 12.6016 8.40313C12.6016 7.28922 13.0441 6.22093 13.8317 5.43328C14.6194 4.64562 15.6877 4.20313 16.8016 4.20312C17.9155 4.20313 18.9838 4.64562 19.7714 5.43328C20.5591 6.22093 21.0016 7.28922 21.0016 8.40313Z" stroke="#5DA05D" stroke-width="3"/>
<path d="M29.4062 36.75H42.0063C43.1202 36.75 44.1884 37.1925 44.9761 37.9802C45.7638 38.7678 46.2063 39.8361 46.2063 40.95V42C46.2063 43.1139 45.7638 44.1822 44.9761 44.9698C44.1884 45.7575 43.1202 46.2 42.0063 46.2H39.9063" stroke="#5DA05D" stroke-width="3" stroke-linecap="round"/>
</svg>
