<svg width="51" height="51" viewBox="0 0 51 51" fill="none" xmlns="http://www.w3.org/2000/svg">
<path d="M30.6869 15.1169C31.4177 16.1459 31.9469 17.5403 31.9469 18.8969C31.9469 19.8951 31.7097 20.8791 31.2548 21.7677C30.7999 22.6562 30.1404 23.424 29.3305 24.0077C28.5207 24.5914 27.5838 24.9743 26.597 25.1248C25.6101 25.2754 24.6017 25.1893 23.6546 24.8736C22.7076 24.5579 21.8492 24.0217 21.15 23.3092C20.4509 22.5966 19.9311 21.7282 19.6334 20.7753C19.3358 19.8225 19.2688 18.8126 19.4381 17.8288C19.6073 16.845 20.0079 15.9155 20.6069 15.1169M20.6069 15.1169L25.6469 16.7969L38.2469 12.5969L25.6469 6.29688L13.0469 12.5969M20.6069 15.1169L13.0469 12.5969M13.0469 12.5969V20.9969M13.0469 41.5769V37.0619C13.0469 33.5276 15.7202 30.1151 19.244 29.399L25.649 35.5625L31.949 29.378C35.5232 30.05 38.249 33.494 38.249 37.0619V41.5769C38.249 42.902 37.1192 43.9772 35.729 43.9772H15.569C14.1767 43.9772 13.0469 42.902 13.0469 41.5769Z" stroke="#5DA05D" stroke-width="3" stroke-linecap="round" stroke-linejoin="round"/>
</svg>
