<svg width="50" height="50" viewBox="0 0 50 50" fill="none" xmlns="http://www.w3.org/2000/svg">
<rect width="50" height="50" rx="25" fill="white"/>
<path fill-rule="evenodd" clip-rule="evenodd" d="M20.8236 15.0273C20.4013 15.0269 19.9859 15.1341 19.6165 15.3388C19.2376 15.5319 18.9185 15.8244 18.6933 16.185C18.468 16.5457 18.3452 16.9608 18.3379 17.3859V32.6388C18.3452 33.0639 18.468 33.479 18.6933 33.8397C18.9185 34.2003 19.2376 34.4928 19.6165 34.6859C19.9926 34.8948 20.4164 35.0025 20.8466 34.9985C21.2768 34.9945 21.6986 34.8789 22.0707 34.6631L34.3993 27.0373C34.7798 26.8456 35.0995 26.552 35.3229 26.1892C35.5462 25.8264 35.6644 25.4087 35.6642 24.9826C35.6641 24.5566 35.5456 24.139 35.322 23.7763C35.0984 23.4137 34.7785 23.1202 34.3979 22.9288L22.0693 15.3602C21.6906 15.1416 21.2609 15.0268 20.8236 15.0273Z" fill="black"/>
</svg>
