<svg width="61" height="61" viewBox="0 0 61 61" fill="none" xmlns="http://www.w3.org/2000/svg">
<path d="M57.4248 53.2666L59.7754 59.7803L55.0742 58.1895L57.4248 53.2666Z" fill="#FFF705" stroke="black"/>
<path d="M33.4443 37.9336L28.0127 49.1523L23.4023 47.5615L33.4443 37.9336Z" fill="#FAB700" stroke="black"/>
<path d="M35.5195 35.9434L47.1025 24.7461L47.2119 25.0889L34.5381 51.3584L28.9668 49.4766L35.5195 35.9434Z" fill="#FFF705" stroke="black"/>
<path d="M47.6816 26.415L50.4199 34.0127L41.0625 53.4648L35.4961 51.6719L47.6816 26.415Z" fill="#FAB700" stroke="black"/>
<path d="M50.9004 35.3223L53.7344 43.0283L47.5957 55.6631L42.0215 53.7813L50.9004 35.3223Z" fill="#FFF705" stroke="black"/>
<path d="M54.209 44.3438L56.9482 51.9473L54.1201 57.8691L48.5518 55.9893L54.209 44.3438Z" fill="#FAB700" stroke="black"/>
<path d="M29.7206 30.6352C36.5593 23.924 44.227 20.4181 46.7138 22.8222C49.2006 25.3263 45.6776 32.7387 38.7353 39.5501C31.8966 46.2613 24.2289 49.7672 21.7421 47.3632C19.2553 44.859 22.8819 37.4466 29.7206 30.6352Z" fill="#131927"/>
<path d="M12.4164 39.0477C10.0332 40.6504 8.99705 38.9476 9.41152 36.7439C6.82109 38.8474 4.95598 37.5452 5.6813 34.2397C5.88854 33.238 7.65003 34.6404 7.65003 35.5419C9.72237 32.8374 12.0019 34.3399 11.4839 37.2447C15.1105 34.6404 14.1779 39.0477 14.3851 41.0511C17.0792 41.5519 20.1877 38.5469 20.1877 39.5486C20.1877 41.7523 11.5875 45.3583 12.4164 39.0477Z" fill="#FAB700"/>
<path d="M17.3894 18.016C18.1147 19.5185 11.276 23.7255 11.1724 18.5168C8.37472 21.5219 7.0277 21.1212 6.92408 17.1145C2.1577 21.7222 0.499826 14.41 2.98663 13.7088C3.71195 13.5085 2.36493 15.9125 3.71195 16.7138C5.26621 17.6153 9.30727 11.1044 8.99642 17.8157C11.5868 15.3115 12.8303 15.2113 13.2447 19.1178C14.0737 18.617 16.9749 17.0143 17.3894 18.016Z" fill="#FF2801"/>
<path d="M33.5547 16.3125L32.2077 14.81C32.2077 14.81 34.3836 13.4077 35.2126 12.406C31.4824 11.6046 29.3064 11.805 31.7932 7.69811C25.369 10.002 27.7522 6.1956 29.5136 2.48941C27.8558 2.68975 28.063 2.48941 27.5449 0.886737C33.0366 -0.515605 31.3787 3.29075 29.6173 6.29577C34.5909 4.49276 34.28 6.39594 32.6222 10.2023C34.6945 10.3025 37.0777 10.9035 37.2849 12.1055C37.6994 13.5078 33.5547 16.3125 33.5547 16.3125Z" fill="#9EA2AE"/>
<path d="M18.2185 27.5304C20.7053 29.3334 22.0523 32.2383 24.2283 34.3418C26.5079 36.5455 32.7249 37.8477 32.7249 37.8477C32.7249 37.8477 26.197 37.0463 23.7102 34.9428C21.4306 33.0396 19.7728 30.2349 17.1823 28.7324C12.416 26.1281 6.19893 28.5321 2.57234 31.9378C1.95064 31.2366 1.1217 30.2349 0.5 29.7341C4.7483 26.4286 12.934 23.6239 18.2185 27.5304Z" fill="#9A3DED"/>
<path d="M23.5024 24.4275C25.4711 27.0318 28.3724 28.935 31.0664 30.738C33.4496 32.3407 36.4545 37.4492 36.4545 37.4492C36.4545 37.4492 33.0352 32.6412 30.5483 31.1387C27.4398 29.3357 24.2277 27.5327 21.9481 24.728C17.4926 19.1186 17.9071 11.0051 20.2903 4.69451C21.2228 5.09518 23.1915 5.79635 23.1915 5.79635C23.1915 5.79635 19.4613 19.1186 23.5024 24.4275Z" fill="#FF2801"/>
<path d="M22.9843 13.3081C25.2639 15.0109 28.0616 15.8122 30.652 17.1144C33.0352 18.3164 35.3147 19.9191 36.5582 22.2229C37.9052 24.8273 37.4907 30.5368 37.4907 30.5368C37.4907 30.5368 37.3871 24.8273 35.7292 22.4233C34.0713 20.0193 31.1701 18.7171 28.476 17.8156C23.2952 16.0126 17.6999 13.8089 15.4203 8.60018C16.3528 8.29968 18.3216 7.59851 18.3216 7.59851C18.3216 7.59851 19.1505 10.5034 22.9843 13.3081ZM12.2341 59.375L9.30273 56.5423L12.233 53.7085L15.1654 56.5413L12.2341 59.375Z" fill="#FAB700"/>
<path d="M21.4283 55.4062L18.498 52.5745L21.4283 49.7418L24.3586 52.5745L21.4283 55.4062Z" fill="#FF2801"/>
<path d="M7.56896 48.207L4.63867 45.3743L7.56896 42.5416L10.4992 45.3743L7.56896 48.207Z" fill="#9EA2AE"/>
<path d="M42.6677 17.3086L39.7363 14.4759L42.6677 11.6431L45.5979 14.4759L42.6677 17.3086Z" fill="#9A3DED"/>
<path d="M52.7135 23.6211L49.7832 20.7884L52.7145 17.9546L55.6448 20.7884L52.7135 23.6211Z" fill="#9EA2AE"/>
<path d="M55.0094 11.2227L52.0781 8.38993L55.0094 5.55719L57.9397 8.38993L55.0094 11.2227Z" fill="#FF2801"/>
<path d="M41.6691 8.41854L38.7389 5.58581L41.6691 2.75307L44.6005 5.58581L41.6691 8.41854ZM10.6794 13.1484L7.74805 10.3157L10.6794 7.48197L13.6097 10.3147L10.6794 13.1484Z" fill="#FAB700"/>
<path d="M28.2604 43.5156L25.3301 40.6819L28.2604 37.8492L31.1917 40.6819L28.2604 43.5156Z" fill="#9EA2AE"/>
</svg>
