<svg width="17" height="16" viewBox="0 0 17 16" fill="none" xmlns="http://www.w3.org/2000/svg">
<path d="M10.8761 7.6095V9.17175M12.4387 7.6095H4.62598M11.6572 4.48425H5.40748V2.1405C5.40748 1.93333 5.48977 1.73465 5.63626 1.58816C5.78275 1.44167 5.98143 1.35938 6.1886 1.35938H10.8761C11.0833 1.35938 11.282 1.44167 11.4284 1.58816C11.5749 1.73465 11.6572 1.93333 11.6572 2.1405V4.48425Z" stroke="#131927" stroke-width="1.04167" stroke-linecap="round" stroke-linejoin="round"/>
<path d="M15.5625 14.6409V5.26587C15.5625 5.05867 15.4802 4.85995 15.3337 4.7134C15.1873 4.56685 14.9886 4.48447 14.7814 4.48438H2.28113C1.84988 4.48438 1.5 4.83425 1.5 5.26587V14.6409C1.5 15.0721 1.84988 15.422 2.28113 15.422H14.7814C15.2126 15.422 15.5625 15.0721 15.5625 14.6409Z" stroke="#131927" stroke-width="1.04167" stroke-linecap="round" stroke-linejoin="round"/>
</svg>
