<svg width="20" height="19" viewBox="0 0 20 19" fill="none" xmlns="http://www.w3.org/2000/svg">
<path d="M14.3965 11.8281H12.834V13.3906H14.3965M14.3965 8.70312H12.834V10.2656H14.3965M15.959 14.9531H9.70898V13.3906H11.2715V11.8281H9.70898V10.2656H11.2715V8.70312H9.70898V7.14062H15.959M8.14648 5.57812H6.58398V4.01562H8.14648M8.14648 8.70312H6.58398V7.14062H8.14648M8.14648 11.8281H6.58398V10.2656H8.14648M8.14648 14.9531H6.58398V13.3906H8.14648M5.02148 5.57812H3.45898V4.01562H5.02148M5.02148 8.70312H3.45898V7.14062H5.02148M5.02148 11.8281H3.45898V10.2656H5.02148M5.02148 14.9531H3.45898V13.3906H5.02148M9.70898 5.57812V2.45312H1.89648V16.5156H17.5215V5.57812H9.70898Z" fill="#2A0D47"/>
</svg>
