<svg width="23" height="23" viewBox="0 0 23 23" fill="none" xmlns="http://www.w3.org/2000/svg">
<path d="M23.0002 20.5194C23.0002 21.8996 19.5498 21.8229 19.5498 21.8229L9.92701 19.4076C9.23692 19.2543 8.7002 18.5258 8.7002 17.7591V9.55469L23.0002 10.3598V20.5194Z" fill="#5F6262"/>
<path d="M22.3098 4.3384L21.7731 4.26172L19.0894 5.56522L18.7061 22.4724C20.9296 20.5938 22.9999 20.5555 22.9999 20.5555V5.83359C22.9999 5.22017 22.7315 4.68344 22.3098 4.3384Z" fill="#343434"/>
<path d="M19.2428 20.941C19.2428 22.3212 18.246 23.203 17.0576 22.9346L2.02913 19.2541C1.14736 19.0241 0.418945 17.9123 0.418945 16.7622V4.37891L19.2428 5.60573V20.941Z" fill="#5F6262"/>
<path d="M19.5107 11.7014C19.5107 13.0815 18.3605 14.1167 17.1721 13.8866L2.10531 11.3946C1.22354 11.2413 0.495117 10.1678 0.495117 9.01768L0.993509 3.95703L19.5874 5.45222L19.5107 11.7014Z" fill="#343434"/>
<path d="M0.993888 3.60938C-0.424611 4.56783 -0.424611 10.4719 1.64563 10.4719L16.7124 12.8106C17.9009 13.0022 18.8977 12.0054 18.8977 10.6253C18.8977 10.6253 18.4376 6.1397 19.281 5.56463L19.9711 5.25792L0.993888 3.60938Z" fill="#5F6262"/>
<path d="M11.1155 9.40002L7.05166 8.86328L6.32324 11.7003L7.05166 13.8089L11.1155 14.5373V9.40002Z" fill="#65562D"/>
<path d="M7.05166 8.86328L6.32324 11.7003L10.3871 12.3137L11.1155 9.40002L7.05166 8.86328Z" fill="#F8ECC5"/>
<path d="M7.05166 13.8117L11.1155 14.5402L10.3871 12.3165L6.32324 11.7031L7.05166 13.8117Z" fill="#BFAE6E"/>
<path d="M20.9679 3.87917L7.20462 2.65234L1.99067 3.26576L1.76065 3.30409C1.49228 3.34243 1.22392 3.45745 1.03223 3.6108L19.3194 5.60439L21.2363 4.76095C22.8081 3.99418 22.9998 5.37436 22.9998 5.37436C22.7698 4.14754 21.658 3.95584 20.9679 3.87917Z" fill="#919193"/>
<path d="M6.39938 3.11336C6.39938 1.46482 7.70286 1.38814 8.00957 1.27313C8.27793 1.19645 8.46962 0.928085 8.39295 0.698055C8.31627 0.468026 8.0479 0.429688 7.77954 0.429688C6.89777 0.429688 5.36426 0.81307 5.36426 3.11336C5.4026 3.38173 6.39938 3.38173 6.39938 3.11336Z" fill="#BFAE6E"/>
<path d="M6.2078 2.99721C6.16946 2.76718 6.16946 2.53715 6.24614 2.30712C6.28447 2.07709 6.39949 1.84706 6.55284 1.69371C6.70619 1.50202 6.93622 1.387 7.12791 1.31033C7.35793 1.23365 7.58796 1.19531 7.81799 1.19531C7.58796 1.27199 7.39627 1.34867 7.20458 1.42534C7.01289 1.54036 6.8212 1.65537 6.70619 1.80872C6.39949 2.11543 6.28448 2.53715 6.2078 2.99721Z" fill="#65562D"/>
<path d="M15.9838 1.84803C15.9455 2.49978 15.3704 2.99818 14.7187 2.9215L7.62618 2.34643C6.97443 2.30809 6.47604 1.73302 6.55272 1.08127C6.59106 0.429518 7.16612 -0.0688791 7.81787 0.00779742L14.872 0.582871C15.5621 0.621209 16.0605 1.19628 15.9838 1.84803Z" fill="#5F6262"/>
<path d="M15.984 1.8472C15.9456 2.26892 15.4089 2.53729 14.7571 2.46062L7.66465 1.88554C7.01291 1.8472 6.51452 1.46382 6.55285 1.0421C6.59119 0.620381 7.12792 0.352013 7.77966 0.390351L14.8338 0.965425C15.5239 1.08044 16.0223 1.42548 15.984 1.8472Z" fill="#343434"/>
<path d="M16.0995 4.22309C16.0995 3.2263 15.3711 2.61289 14.9494 2.4212C14.2976 2.15283 14.8344 1.00268 15.4478 1.30939C16.2145 1.65443 17.2496 2.7279 17.2496 4.22309C17.288 4.56814 16.0995 4.56814 16.0995 4.22309Z" fill="#BFAE6E"/>
<path d="M16.2522 4.22507C16.1756 3.76501 16.0605 3.34329 15.7922 2.99824C15.5622 2.6532 15.2554 2.30815 14.8721 2.07812C15.1021 2.11646 15.2938 2.23148 15.4855 2.38483C15.6772 2.53818 15.8305 2.69154 15.9455 2.88323C16.2139 3.30495 16.3289 3.76501 16.2522 4.22507Z" fill="#65562D"/>
</svg>
