<svg width="25" height="25" viewBox="0 0 25 25" fill="none" xmlns="http://www.w3.org/2000/svg">
<path d="M4.25 10.4375V21.5C4.25 21.6989 4.32902 21.8897 4.46967 22.0303C4.61032 22.171 4.80109 22.25 5 22.25H9.5V15.875C9.5 15.5766 9.61853 15.2905 9.8295 15.0795C10.0405 14.8685 10.3266 14.75 10.625 14.75H14.375C14.6734 14.75 14.9595 14.8685 15.1705 15.0795C15.3815 15.2905 15.5 15.5766 15.5 15.875V22.25H20C20.1989 22.25 20.3897 22.171 20.5303 22.0303C20.671 21.8897 20.75 21.6989 20.75 21.5V10.4375" stroke="#6B6C6F" stroke-width="1.5" stroke-linecap="round" stroke-linejoin="round"/>
<path d="M23 12.4992L13.0105 2.93668C12.7761 2.68918 12.2281 2.68637 11.9895 2.93668L2 12.4992M19.25 8.88981V3.49918H17V6.73356" stroke="#6B6C6F" stroke-width="1.5" stroke-linecap="round" stroke-linejoin="round"/>
</svg>
