<svg width="116" height="115" viewBox="0 0 116 115" fill="none" xmlns="http://www.w3.org/2000/svg">
<path d="M115.5 57.5C115.5 89.2564 89.7564 115 58 115C26.2436 115 0.5 89.2564 0.5 57.5C0.5 25.7436 26.2436 0 58 0C89.7564 0 115.5 25.7436 115.5 57.5ZM12.3495 57.5C12.3495 82.7121 32.7879 103.151 58 103.151C83.2121 103.151 103.651 82.7121 103.651 57.5C103.651 32.2879 83.2121 11.8495 58 11.8495C32.7879 11.8495 12.3495 32.2879 12.3495 57.5Z" fill="white"/>
<path d="M109.575 57.5C112.847 57.5 115.532 60.1596 115.195 63.4144C114.138 73.6402 110.353 83.435 104.186 91.7505C96.8387 101.658 86.5 108.941 74.6967 112.522C62.8933 116.104 50.251 115.795 38.6367 111.642C27.0223 107.488 17.0515 99.7092 10.1967 89.4545C3.34182 79.1998 -0.0336861 67.0126 0.568582 54.6925C1.17085 42.3724 5.71897 30.5725 13.5413 21.0353C21.3637 11.498 32.0456 4.72908 44.0098 1.72793C54.0511 -0.790906 64.5489 -0.543626 74.4021 2.38895C77.5383 3.32236 78.9696 6.81951 77.7186 9.84305C76.4676 12.8666 73.0072 14.2627 69.8472 13.4135C62.3684 11.4037 54.4671 11.3213 46.8929 13.2213C37.3943 15.604 28.9136 20.978 22.7033 28.5498C16.4929 36.1216 12.8821 45.4898 12.4039 55.271C11.9258 65.0522 14.6057 74.728 20.0479 82.8694C25.4901 91.0108 33.4061 97.1864 42.627 100.484C51.8479 103.782 61.8849 104.027 71.2559 101.184C80.6268 98.3399 88.8349 92.5582 94.6682 84.6922C99.3196 78.4198 102.264 71.0873 103.267 63.4083C103.69 60.1637 106.303 57.5 109.575 57.5Z" fill="url(#paint0_linear_1265_12704)"/>
<defs>
<linearGradient id="paint0_linear_1265_12704" x1="58" y1="0" x2="109.75" y2="66.125" gradientUnits="userSpaceOnUse">
<stop stop-color="#5DA05D"/>
<stop offset="1" stop-color="white"/>
</linearGradient>
</defs>
</svg>
