<svg width="51" height="51" viewBox="0 0 51 51" fill="none" xmlns="http://www.w3.org/2000/svg">
<g clip-path="url(#clip0_4273_29010)">
<path d="M45.5273 16.9281C46.2656 17.3383 46.9383 17.8387 47.5453 18.4293C48.1523 19.0199 48.6609 19.6762 49.0711 20.398C49.4813 21.1199 49.8094 21.8828 50.0555 22.6867C50.3016 23.4906 50.4164 24.3273 50.4 25.1969H47.25C47.25 24.3438 47.0859 23.5316 46.7578 22.7605C46.4297 21.9895 45.9785 21.325 45.4043 20.7672C44.8301 20.2094 44.1574 19.7582 43.3863 19.4137C42.6152 19.0691 41.8031 18.8969 40.95 18.8969C40.0805 18.8969 39.2684 19.0609 38.5137 19.3891C37.759 19.7172 37.0945 20.1684 36.5203 20.7426C35.9461 21.3168 35.4949 21.9895 35.1668 22.7605C34.8387 23.5316 34.6664 24.3438 34.65 25.1969C34.65 26.6898 34.3137 28.109 33.641 29.4543C32.9684 30.7996 32.025 31.9152 30.8109 32.8012C31.8773 33.3426 32.8371 34.007 33.6902 34.7945C34.5434 35.582 35.2816 36.468 35.9051 37.4523C36.5285 38.4367 36.9961 39.4867 37.3078 40.6023C37.6195 41.718 37.7836 42.8828 37.8 44.0969H34.65C34.65 42.8008 34.4039 41.5785 33.9117 40.4301C33.4195 39.2816 32.7387 38.2809 31.8691 37.4277C30.9996 36.5746 29.9988 35.902 28.8668 35.4098C27.7348 34.9176 26.5125 34.6633 25.2 34.6469C23.9039 34.6469 22.6816 34.893 21.5332 35.3852C20.3848 35.8773 19.384 36.5582 18.5309 37.4277C17.6777 38.2973 17.0051 39.298 16.5129 40.4301C16.0207 41.5621 15.7664 42.7844 15.75 44.0969H12.6C12.6 42.8992 12.7641 41.7426 13.0922 40.627C13.4203 39.5113 13.8879 38.4613 14.4949 37.477C15.102 36.4926 15.832 35.6066 16.6852 34.8191C17.5383 34.0316 18.5063 33.359 19.5891 32.8012C18.3914 31.9152 17.4563 30.7996 16.7836 29.4543C16.1109 28.109 15.7664 26.6898 15.75 25.1969C15.75 24.3438 15.5859 23.5316 15.2578 22.7605C14.9297 21.9895 14.4785 21.325 13.9043 20.7672C13.3301 20.2094 12.6574 19.7582 11.8863 19.4137C11.1152 19.0691 10.3031 18.8969 9.45 18.8969C8.58047 18.8969 7.76836 19.0609 7.01367 19.3891C6.25898 19.7172 5.59453 20.1684 5.02031 20.7426C4.44609 21.3168 3.99492 21.9895 3.6668 22.7605C3.33867 23.5316 3.16641 24.3438 3.15 25.1969H0C0 24.3438 0.114844 23.5152 0.344531 22.7113C0.574219 21.9074 0.894141 21.1445 1.3043 20.4227C1.71445 19.7008 2.23125 19.0445 2.85469 18.4539C3.47813 17.8633 4.15078 17.3547 4.87266 16.9281C4.33125 16.3539 3.91289 15.6895 3.61758 14.9348C3.32227 14.1801 3.16641 13.4008 3.15 12.5969C3.15 11.7438 3.31406 10.9316 3.64219 10.1605C3.97031 9.38945 4.42148 8.725 4.9957 8.16719C5.56992 7.60938 6.23438 7.1582 6.98906 6.81367C7.74375 6.46914 8.56406 6.29688 9.45 6.29688C10.3031 6.29688 11.1152 6.46094 11.8863 6.78906C12.6574 7.11719 13.3219 7.56836 13.8797 8.14258C14.4375 8.7168 14.8887 9.38945 15.2332 10.1605C15.5777 10.9316 15.75 11.7438 15.75 12.5969C15.75 13.4008 15.6023 14.1801 15.307 14.9348C15.0117 15.6895 14.5852 16.3539 14.0273 16.9281C15.3727 17.6664 16.4719 18.6836 17.325 19.9797C18.2109 18.6672 19.343 17.6336 20.7211 16.8789C22.0992 16.1242 23.5922 15.7469 25.2 15.7469C26.7914 15.7469 28.2762 16.1242 29.6543 16.8789C31.0324 17.6336 32.1727 18.6672 33.075 19.9797C33.9281 18.6836 35.0273 17.6664 36.3727 16.9281C35.8313 16.3539 35.4129 15.6895 35.1176 14.9348C34.8223 14.1801 34.6664 13.4008 34.65 12.5969C34.65 11.7438 34.8141 10.9316 35.1422 10.1605C35.4703 9.38945 35.9215 8.725 36.4957 8.16719C37.0699 7.60938 37.7344 7.1582 38.4891 6.81367C39.2438 6.46914 40.0641 6.29688 40.95 6.29688C41.8031 6.29688 42.6152 6.46094 43.3863 6.78906C44.1574 7.11719 44.8219 7.56836 45.3797 8.14258C45.9375 8.7168 46.3887 9.38945 46.7332 10.1605C47.0777 10.9316 47.25 11.7438 47.25 12.5969C47.25 13.4008 47.1023 14.1801 46.807 14.9348C46.5117 15.6895 46.0852 16.3539 45.5273 16.9281ZM6.3 12.5969C6.3 13.0398 6.38203 13.45 6.54609 13.8273C6.71016 14.2047 6.93164 14.5328 7.21055 14.8117C7.48945 15.0906 7.82578 15.3203 8.21953 15.5008C8.61328 15.6813 9.02344 15.7633 9.45 15.7469C9.89297 15.7469 10.3031 15.6648 10.6805 15.5008C11.0578 15.3367 11.3859 15.1152 11.6648 14.8363C11.9438 14.5574 12.1734 14.2211 12.3539 13.8273C12.5344 13.4336 12.6164 13.0234 12.6 12.5969C12.6 12.1539 12.518 11.7438 12.3539 11.3664C12.1898 10.9891 11.9684 10.6609 11.6895 10.382C11.4105 10.1031 11.0742 9.87344 10.6805 9.69297C10.2867 9.5125 9.87656 9.43047 9.45 9.44688C9.00703 9.44688 8.59688 9.52891 8.21953 9.69297C7.84219 9.85703 7.51406 10.0785 7.23516 10.3574C6.95625 10.6363 6.72656 10.9727 6.54609 11.3664C6.36563 11.7602 6.28359 12.1703 6.3 12.5969ZM25.2 31.4969C26.0531 31.4969 26.8652 31.3328 27.6363 31.0047C28.4074 30.6766 29.0719 30.2254 29.6297 29.6512C30.1875 29.077 30.6387 28.4125 30.9832 27.6578C31.3277 26.9031 31.5 26.0828 31.5 25.1969C31.5 24.3438 31.3359 23.5316 31.0078 22.7605C30.6797 21.9895 30.2285 21.325 29.6543 20.7672C29.0801 20.2094 28.4074 19.7582 27.6363 19.4137C26.8652 19.0691 26.0531 18.8969 25.2 18.8969C24.3305 18.8969 23.5184 19.0609 22.7637 19.3891C22.009 19.7172 21.3445 20.1684 20.7703 20.7426C20.1961 21.3168 19.7449 21.9895 19.4168 22.7605C19.0887 23.5316 18.9164 24.3438 18.9 25.1969C18.9 26.0664 19.0641 26.8785 19.3922 27.6332C19.7203 28.3879 20.1715 29.0523 20.7457 29.6266C21.3199 30.2008 21.9844 30.652 22.7391 30.9801C23.4938 31.3082 24.3141 31.4805 25.2 31.4969ZM37.8 12.5969C37.8 13.0398 37.882 13.45 38.0461 13.8273C38.2102 14.2047 38.4316 14.5328 38.7105 14.8117C38.9895 15.0906 39.3258 15.3203 39.7195 15.5008C40.1133 15.6813 40.5234 15.7633 40.95 15.7469C41.393 15.7469 41.8031 15.6648 42.1805 15.5008C42.5578 15.3367 42.8859 15.1152 43.1648 14.8363C43.4438 14.5574 43.6734 14.2211 43.8539 13.8273C44.0344 13.4336 44.1164 13.0234 44.1 12.5969C44.1 12.1539 44.018 11.7438 43.8539 11.3664C43.6898 10.9891 43.4684 10.6609 43.1895 10.382C42.9105 10.1031 42.5742 9.87344 42.1805 9.69297C41.7867 9.5125 41.3766 9.43047 40.95 9.44688C40.507 9.44688 40.0969 9.52891 39.7195 9.69297C39.3422 9.85703 39.0141 10.0785 38.7352 10.3574C38.4562 10.6363 38.2266 10.9727 38.0461 11.3664C37.8656 11.7602 37.7836 12.1703 37.8 12.5969Z" fill="#131927" fill-opacity="0.9"/>
</g>
<defs>
<clipPath id="clip0_4273_29010">
<rect width="50.4" height="50.4" fill="white"/>
</clipPath>
</defs>
</svg>
