<svg width="51" height="51" viewBox="0 0 51 51" fill="none" xmlns="http://www.w3.org/2000/svg">
<path d="M23.1016 35.7016L27.3016 39.9016C27.7152 40.3152 28.2063 40.6434 28.7468 40.8672C29.2873 41.0911 29.8666 41.2063 30.4516 41.2063C31.0366 41.2063 31.6159 41.0911 32.1563 40.8672C32.6968 40.6434 33.1879 40.3152 33.6016 39.9016C34.0152 39.4879 34.3434 38.9968 34.5672 38.4563C34.7911 37.9159 34.9063 37.3366 34.9063 36.7516C34.9063 36.1666 34.7911 35.5873 34.5672 35.0468C34.3434 34.5063 34.0152 34.0152 33.6016 33.6016" stroke="#2A0D47" stroke-width="2" stroke-linecap="round" stroke-linejoin="round"/>
<path d="M29.4001 29.3979L34.6501 34.6479C35.4855 35.4834 36.6186 35.9527 37.8001 35.9527C38.9816 35.9527 40.1147 35.4834 40.9501 34.6479C41.7855 33.8125 42.2549 32.6794 42.2549 31.4979C42.2549 30.3165 41.7855 29.1834 40.9501 28.3479L32.8021 20.1999C31.6208 19.0201 30.0196 18.3575 28.3501 18.3575C26.6806 18.3575 25.0793 19.0201 23.8981 20.1999L22.0501 22.0479C21.2147 22.8834 20.0816 23.3527 18.9001 23.3527C17.7186 23.3527 16.5855 22.8834 15.7501 22.0479C14.9147 21.2125 14.4453 20.0794 14.4453 18.8979C14.4453 17.7165 14.9147 16.5834 15.7501 15.7479L21.6511 9.84693C23.5668 7.93624 26.0651 6.71909 28.7504 6.38817C31.4358 6.05726 34.1548 6.63148 36.4771 8.01993L37.4641 8.60793C38.3582 9.1476 39.4214 9.33478 40.4461 9.13293L44.1001 8.39793" stroke="#2A0D47" stroke-width="2" stroke-linecap="round" stroke-linejoin="round"/>
<path d="M44.1031 6.29688L46.2031 29.3969H42.0031M6.30313 6.29688L4.20312 29.3969L17.8531 43.0469C18.6886 43.8823 19.8216 44.3517 21.0031 44.3517C22.1846 44.3517 23.3177 43.8823 24.1531 43.0469C24.9886 42.2114 25.4579 41.0784 25.4579 39.8969C25.4579 38.7154 24.9886 37.5823 24.1531 36.7469M6.30313 8.39688H23.1031" stroke="#2A0D47" stroke-width="2" stroke-linecap="round" stroke-linejoin="round"/>
</svg>
