<svg width="51" height="51" viewBox="0 0 51 51" fill="none" xmlns="http://www.w3.org/2000/svg">
<path d="M10.4984 31.4984C9.90344 31.4984 9.40505 31.2968 9.00324 30.8936C8.60144 30.4904 8.39984 29.992 8.39844 29.3984C8.39704 28.8048 8.59865 28.3064 9.00324 27.9032C9.40785 27.5 9.90624 27.2984 10.4984 27.2984H27.2984C27.8934 27.2984 28.3925 27.5 28.7957 27.9032C29.1989 28.3064 29.3998 28.8048 29.3984 29.3984C29.397 29.992 29.1954 30.4911 28.7936 30.8957C28.3918 31.3003 27.8934 31.5012 27.2984 31.4984H10.4984ZM10.4984 23.0984C9.90344 23.0984 9.40505 22.8968 9.00324 22.4936C8.60144 22.0904 8.39984 21.592 8.39844 20.9984C8.39704 20.4048 8.59865 19.9064 9.00324 19.5032C9.40785 19.1 9.90624 18.8984 10.4984 18.8984H39.8984C40.4934 18.8984 40.9925 19.1 41.3957 19.5032C41.7989 19.9064 41.9998 20.4048 41.9984 20.9984C41.997 21.592 41.7954 22.0911 41.3936 22.4957C40.9918 22.9003 40.4934 23.1012 39.8984 23.0984H10.4984Z" fill="#2A0D47"/>
</svg>
