<svg width="40" height="40" viewBox="0 0 40 40" fill="none" xmlns="http://www.w3.org/2000/svg">
<path fill-rule="evenodd" clip-rule="evenodd" d="M15.7137 7.5938C9.43875 11.6238 5.95263 16.3146 5.25541 21.6663C4.16958 29.9971 11.6196 34.0746 15.3946 30.4113C19.1696 26.748 16.9071 22.0971 14.1737 20.8255C11.4404 19.5538 9.76874 19.9971 10.0604 18.298C10.3521 16.5988 14.2404 11.8896 17.6571 9.6963C17.778 9.59323 17.8551 9.44798 17.8727 9.29009C17.8904 9.1322 17.8472 8.97351 17.7521 8.8463L16.9071 7.74713C16.5404 7.27046 16.1887 7.2888 15.7137 7.59296M32.2354 7.5938C25.9604 11.6238 22.4743 16.3146 21.7771 21.6663C20.6904 29.9971 28.1404 34.0746 31.9154 30.4113C35.6904 26.748 33.4279 22.0971 30.6937 20.8255C27.9596 19.5538 26.2887 19.9971 26.5804 18.298C26.8721 16.5988 30.7612 11.8896 34.1779 9.6963C34.2987 9.59311 34.3756 9.44781 34.3931 9.28992C34.4106 9.13204 34.3673 8.97341 34.2721 8.8463L33.4279 7.74713C33.0612 7.27046 32.7096 7.2888 32.2354 7.59296" fill="#5DA05D"/>
</svg>
