<svg width="51" height="51" viewBox="0 0 51 51" fill="none" xmlns="http://www.w3.org/2000/svg">
<path d="M14.1719 17.3222C14.1719 14.3982 15.3334 11.594 17.401 9.52637C19.4686 7.45878 22.2729 6.29722 25.1969 6.29722C28.1209 6.29722 30.9251 7.45878 32.9927 9.52637C35.0603 11.594 36.2219 14.3982 36.2219 17.3222C36.2219 17.7399 36.3878 18.1405 36.6832 18.4359C36.9786 18.7313 37.3792 18.8972 37.7969 18.8972C38.2146 18.8972 38.6152 18.7313 38.9106 18.4359C39.2059 18.1405 39.3719 17.7399 39.3719 17.3222C39.3717 14.9048 38.7532 12.5276 37.5753 10.4166C36.3974 8.30553 34.6992 6.53082 32.6421 5.26111C30.5849 3.9914 28.2373 3.26888 25.8222 3.16224C23.4071 3.0556 21.0049 3.56837 18.8439 4.65181C16.6829 5.73526 14.8348 7.35338 13.4754 9.35237C12.116 11.3514 11.2904 13.6648 11.0772 16.0728C10.8639 18.4808 11.27 20.9033 12.2568 23.1101C13.2437 25.3169 14.7785 27.2347 16.7155 28.6811C18.3765 29.9219 20.2894 30.7831 22.3194 31.2043C22.6013 31.8368 23.0839 32.3587 23.6924 32.6894C24.3009 33.02 25.0014 33.1409 25.6855 33.0334C26.3696 32.9259 26.9992 32.5959 27.4769 32.0946C27.9546 31.5932 28.2538 30.9484 28.3282 30.2599C28.4025 29.5713 28.2479 28.8775 27.8883 28.2857C27.5286 27.6939 26.984 27.2371 26.3386 26.986C25.6932 26.7349 24.9831 26.7035 24.318 26.8966C23.653 27.0897 23.0701 27.4966 22.6596 28.0543C20.2429 27.4827 18.0899 26.1121 16.5494 24.1642C15.009 22.2164 14.1712 19.8056 14.1719 17.3222ZM15.7469 17.3222C15.7475 15.5837 16.2277 13.8791 17.1346 12.3959C18.0415 10.9127 19.34 9.70839 20.8872 8.91554C22.4343 8.12269 24.1703 7.772 25.9039 7.90207C27.6375 8.03213 29.3017 8.63791 30.7132 9.65274C32.1248 10.6676 33.229 12.0521 33.9045 13.654C34.5799 15.256 34.8004 17.0132 34.5416 18.7323C34.2828 20.4514 33.5548 22.0659 32.4377 23.3979C31.3206 24.73 29.8576 25.7281 28.2099 26.2824C27.3625 25.581 26.2969 25.1972 25.1969 25.1972C24.0519 25.1972 23.0029 25.6051 22.1839 26.2824C20.3077 25.6513 18.677 24.4469 17.5221 22.8392C16.3671 21.2315 15.7462 19.3017 15.7469 17.3222ZM25.1969 11.0222C23.526 11.0222 21.9236 11.686 20.7421 12.8674C19.5606 14.0489 18.8969 15.6514 18.8969 17.3222C18.8969 18.9931 19.5606 20.5955 20.7421 21.777C21.9236 22.9585 23.526 23.6222 25.1969 23.6222C26.8677 23.6222 28.4702 22.9585 29.6516 21.777C30.8331 20.5955 31.4969 18.9931 31.4969 17.3222C31.4969 15.6514 30.8331 14.0489 29.6516 12.8674C28.4702 11.686 26.8677 11.0222 25.1969 11.0222ZM11.8094 28.3472H13.9498C15.2159 29.6407 16.6955 30.7063 18.3236 31.4972H11.8094C11.1828 31.4972 10.5819 31.7461 10.1388 32.1892C9.69578 32.6322 9.44688 33.2331 9.44688 33.8597V34.6472C9.44688 36.9672 10.9274 39.2919 13.7923 41.1142C16.6383 42.9254 20.6656 44.0972 25.1953 44.0972C29.7282 44.0972 33.7554 42.9254 36.6015 41.1142C39.468 39.2935 40.9469 36.9656 40.9469 34.6472V33.8597C40.9469 33.2331 40.698 32.6322 40.2549 32.1892C39.8119 31.7461 39.211 31.4972 38.5844 31.4972H29.6541C30.0144 30.4781 30.0144 29.3663 29.6541 28.3472H38.5844C40.0464 28.3472 41.4485 28.928 42.4823 29.9618C43.5161 30.9956 44.0969 32.3977 44.0969 33.8597V34.6472C44.0969 38.4162 41.6982 41.604 38.293 43.7712C34.869 45.951 30.2337 47.2472 25.1969 47.2472C20.16 47.2472 15.5264 45.951 12.1008 43.7712C8.6956 41.604 6.29688 38.4162 6.29688 34.6472V33.8597C6.29688 32.3977 6.87765 30.9956 7.91145 29.9618C8.94524 28.928 10.3474 28.3472 11.8094 28.3472Z" fill="#2A0D47"/>
</svg>
